<?xml version="1.0" encoding="utf-8"?>
<!-- Generator: Adobe Illustrator 23.1.1, SVG Export Plug-In . SVG Version: 6.00 Build 0)  -->
<svg version="1.1" id="Layer_1" xmlns="http://www.w3.org/2000/svg" xmlns:xlink="http://www.w3.org/1999/xlink" x="0px" y="0px"
	 viewBox="0 0 845.52 330.91" style="enable-background:new 0 0 845.52 330.91;" xml:space="preserve">
<style type="text/css">
	.st0{fill:#F48059;}
	.st1{fill:#EC1C24;}
	.st2{fill:#FBC3B4;}
	.st3{fill:#404041;}
</style>
<path class="st0" d="M10.51,177.61l-0.23-6c0.2-0.01,20.14-0.87,44.46-9.89c22.3-8.27,52.98-25.33,72.53-59.58l5.21,2.97
	c-20.49,35.89-52.56,53.69-75.85,62.3C31.45,176.73,11.35,177.58,10.51,177.61z"/>
<path class="st1" d="M10.95,187.6l-0.26-5.99c3.14-0.14,77.41-4.01,118.16-63.18c2.49-3.61,4.88-7.42,7.11-11.32l5.21,2.97
	c-2.31,4.05-4.79,8-7.38,11.75c-17.56,25.5-43.96,44.91-76.35,56.13C33.01,186.44,13.14,187.51,10.95,187.6z"/>
<path class="st2" d="M10.09,167.62l-0.29-5.99c2.75-0.13,67.64-3.82,102.62-54.6c2.17-3.14,4.24-6.45,6.17-9.83l5.21,2.97
	c-2.01,3.53-4.18,6.98-6.44,10.26c-15.19,22.06-38.21,38.9-66.56,48.71C29.48,166.51,12.01,167.53,10.09,167.62z"/>
<path class="st0" d="M845.52,302.08H367.28c-11.16,0-23.59-0.93-23.71-0.94c-27.68-2.9-80.9-12.16-127.24-41.68
	c-55.78-35.54-85.88-89.29-89.46-159.77l5.99-0.3c3.47,68.43,32.64,120.58,86.69,155.02c45.3,28.86,97.48,37.93,124.55,40.77
	c0.04,0,12.24,0.92,23.17,0.92h478.24V302.08z"/>
<path class="st2" d="M845.52,291.88H354.71l-0.1-0.01c-20.46-1.46-73.2-7.68-120.85-33.94c-58.83-32.42-91.24-83.86-96.33-152.91
	l5.57-0.41c4.94,67.04,36.39,116.98,93.46,148.43c46.6,25.68,98.28,31.81,118.45,33.25h490.61V291.88z"/>
<path class="st1" d="M845.52,311.88H367.28c-14.19,0-33.34-2.02-33.54-2.04c-28.33-3.72-70.28-12.7-109.63-34.38
	c-66.98-36.91-102.99-95.88-107.02-175.27l5.58-0.28c3.92,77.33,38.96,134.74,104.13,170.66c38.58,21.26,79.81,30.08,107.59,33.73
	c0.12,0.01,18.98,2.01,32.88,2.01h478.24V311.88z"/>
<path class="st2" d="M103.46,331.88l-5.68-1.93c10.66-31.45,35.82-116.51,39.07-226.88l6,0.18
	C139.58,214.43,114.22,300.17,103.46,331.88z"/>
<path class="st1" d="M86.48,319.56l-5.7-1.86c12.43-38.13,33.66-117.29,36.18-218.95l6,0.15
	C120.42,201.33,99.02,281.12,86.48,319.56z"/>
<path class="st0" d="M94.32,327.71l-5.69-1.92c13.18-39.12,35.7-120.59,38.33-226.79l6,0.15
	C130.31,206.14,107.61,288.27,94.32,327.71z"/>
<path class="st1" d="M135.55,6.14c14.22,0,27.81,5.32,38.26,14.98c11.05,10.21,17.46,24.13,18.06,39.2
	c0.59,15.07-4.7,29.46-14.91,40.5c-10.65,11.52-25.75,18.13-41.44,18.13c-14.22,0-27.81-5.32-38.26-14.98
	c-11.07-10.23-17.49-24.15-18.08-39.2c-0.6-15.05,4.71-29.44,14.93-40.51C104.75,12.75,119.86,6.14,135.55,6.14 M135.55,0.14
	c-17.36,0-34.07,7.31-45.85,20.06C78.39,32.44,72.52,48.35,73.18,65.01c0.66,16.66,7.76,32.06,20.01,43.37
	c11.57,10.69,26.6,16.57,42.33,16.57c17.36,0,34.07-7.31,45.85-20.06c11.3-12.23,17.16-28.14,16.5-44.81
	c-0.66-16.67-7.76-32.08-19.98-43.37C166.32,6.02,151.29,0.14,135.55,0.14L135.55,0.14z"/>
<path class="st0" d="M135.55,16.14c11.7,0,22.88,4.38,31.48,12.32c9.09,8.4,14.36,19.85,14.85,32.25
	c0.49,12.4-3.87,24.24-12.26,33.32c-8.76,9.48-21.19,14.91-34.1,14.91c-11.7,0-22.88-4.38-31.48-12.32
	c-9.11-8.41-14.39-19.87-14.88-32.25c-0.49-12.39,3.87-24.22,12.29-33.32C110.21,21.57,122.64,16.14,135.55,16.14 M135.55,10.14
	c-14.58,0-28.62,6.14-38.51,16.84c-9.5,10.28-14.43,23.65-13.88,37.63c0.55,13.99,6.52,26.92,16.8,36.42
	c9.71,8.97,22.34,13.92,35.55,13.92c14.58,0,28.62-6.14,38.51-16.84c9.48-10.26,14.4-23.63,13.85-37.63
	c-0.55-14-6.51-26.94-16.78-36.42C161.39,15.08,148.76,10.14,135.55,10.14L135.55,10.14z"/>
<path class="st2" d="M135.55,26.14c9.18,0,17.94,3.43,24.69,9.67c7.13,6.58,11.26,15.57,11.65,25.3c0.38,9.73-3.03,19.02-9.62,26.14
	c-6.87,7.44-16.62,11.7-26.76,11.7c-9.17,0-17.94-3.43-24.69-9.67c-7.14-6.6-11.29-15.58-11.67-25.3c-0.38-9.72,3.04-19,9.64-26.14
	C115.67,30.4,125.42,26.14,135.55,26.14 M135.55,20.14c-11.8,0-23.16,4.97-31.16,13.63C96.7,42.09,92.72,52.9,93.16,64.22
	c0.45,11.32,5.27,21.78,13.59,29.47c7.86,7.26,18.07,11.26,28.76,11.26c11.8,0,23.16-4.97,31.16-13.63
	c7.67-8.3,11.65-19.12,11.2-30.45c-0.45-11.33-5.27-21.8-13.57-29.47C156.46,24.14,146.24,20.14,135.55,20.14L135.55,20.14z"/>
<path class="st0" d="M118.5,115.75c-34.91,0-61.73-12.4-78.73-23.48C19.18,78.83,8.43,64.73,7.99,64.14l4.79-3.61
	c0.1,0.14,10.69,13.99,30.47,26.84c18.17,11.81,48.09,25.19,87.42,21.86l0.51,5.98C126.84,115.57,122.61,115.75,118.5,115.75z"/>
<path class="st1" d="M118.16,125.76C42.79,125.76,1.71,72.43,0,70.16l4.79-3.61c1.64,2.17,40.96,53.22,113.37,53.22
	c4.39,0,8.89-0.19,13.36-0.57l0.51,5.98C127.38,125.56,122.72,125.76,118.16,125.76z"/>
<path class="st2" d="M118.23,105.76c-65.19,0-100.78-45.7-102.26-47.65l4.77-3.64c1.41,1.85,35.23,45.28,97.49,45.28
	c3.82,0,7.72-0.17,11.6-0.5l0.51,5.98C126.29,105.58,122.21,105.76,118.23,105.76z"/>
<path class="st1" d="M210.37,6c22.12,0,43.26,8.27,59.51,23.3c17.21,15.9,27.2,37.56,28.12,60.97c0.93,23.42-7.32,45.79-23.23,63
	c-16.55,17.92-40.05,28.19-64.46,28.19c-22.12,0-43.26-8.27-59.51-23.3c-17.19-15.88-27.16-37.53-28.08-60.97
	c-0.93-23.44,7.31-45.81,23.19-63C162.47,16.28,185.96,6,210.37,6 M210.37,0c-26.08,0-51.18,10.98-68.86,30.12
	c-16.97,18.36-25.77,42.27-24.78,67.31c0.99,25.04,11.65,48.18,30.01,65.14c17.37,16.05,39.95,24.89,63.59,24.89
	c26.08,0,51.18-10.98,68.86-30.12c16.99-18.39,25.8-42.29,24.82-67.31c-0.99-25.02-11.66-48.15-30.05-65.14
	C256.59,8.84,234.01,0,210.37,0L210.37,0z"/>
<path class="st0" d="M210.37,16c19.6,0,38.32,7.33,52.73,20.64c15.25,14.09,24.1,33.28,24.92,54.02
	c0.82,20.75-6.49,40.57-20.58,55.82c-14.67,15.88-35.48,24.98-57.11,24.98c-19.6,0-38.32-7.33-52.73-20.64
	c-15.22-14.07-24.06-33.25-24.88-54.02c-0.82-20.77,6.47-40.6,20.54-55.82C167.93,25.1,188.74,16,210.37,16 M210.37,10
	c-23.3,0-45.72,9.81-61.52,26.91c-15.15,16.4-23.01,37.75-22.13,60.13c0.88,22.37,10.4,43.04,26.8,58.19
	c15.52,14.34,35.69,22.24,56.8,22.24c23.3,0,45.72-9.81,61.52-26.91c15.18-16.42,23.05-37.78,22.17-60.13
	c-0.88-22.35-10.41-43.01-26.84-58.19C251.65,17.9,231.48,10,210.37,10L210.37,10z"/>
<path class="st2" d="M210.37,26c17.07,0,33.39,6.39,45.94,17.99c13.29,12.28,21,28.99,21.71,47.07
	c0.71,18.08-5.65,35.35-17.93,48.64c-12.78,13.83-30.92,21.77-49.77,21.77c-17.07,0-33.39-6.39-45.94-17.99
	c-13.26-12.25-20.96-28.97-21.67-47.07c-0.72-18.1,5.64-35.38,17.89-48.64C173.39,33.93,191.53,26,210.37,26 M210.37,20
	c-20.52,0-40.26,8.64-54.17,23.69c-13.34,14.44-20.26,33.24-19.48,52.95c0.78,19.7,9.16,37.9,23.6,51.24
	c13.66,12.63,31.42,19.58,50.01,19.58c20.52,0,40.26-8.64,54.17-23.7c13.37-14.46,20.3-33.27,19.52-52.95
	c-0.78-19.67-9.17-37.87-23.64-51.24C246.72,26.95,228.96,20,210.37,20L210.37,20z"/>
<g>
	<path class="st3" d="M400.19,252.15c0,1.01-0.29,1.51-0.86,1.51c-1.33,0-3.51-0.13-6.53-0.38c-2.2-0.18-3.65-0.27-4.37-0.27
		c-1.04,0-2.68,0.11-4.91,0.32c-2.23,0.22-3.87,0.32-4.91,0.32l-16.36-26.64c-2.3-3.69-4.17-6.06-5.59-7.1
		c-1.42-1.05-4.27-1.57-8.56-1.57v23.22c0,2.48,0.31,4.24,0.94,5.27c0.63,1.03,1.75,1.84,3.35,2.43c1.6,0.59,3.9,1.07,6.88,1.43
		c0.61,0.07,0.92,0.56,0.92,1.46c0,1.01-0.29,1.51-0.86,1.51c-2.41,0-5.29-0.11-8.64-0.32c-3.2-0.22-5.9-0.32-8.1-0.32
		c-2.2,0-4.88,0.11-8.05,0.32c-3.31,0.22-6.17,0.32-8.59,0.32c-0.58,0-0.86-0.5-0.86-1.51c0-0.9,0.29-1.38,0.86-1.46
		c2.99-0.36,5.27-0.84,6.86-1.43c1.58-0.59,2.69-1.4,3.32-2.4c0.63-1.01,0.95-2.77,0.95-5.3V190.7c0-2.49-0.3-4.24-0.89-5.27
		c-0.59-1.03-1.68-1.85-3.27-2.46c-1.58-0.61-3.91-1.1-6.97-1.46c-0.58,0-0.86-0.49-0.86-1.48s0.29-1.49,0.86-1.49
		c2.41,0,5.27,0.11,8.59,0.32c3.17,0.22,5.85,0.32,8.05,0.32c2.2,0,4.9-0.11,8.1-0.32c3.35-0.21,6.23-0.32,8.64-0.32
		c8.03,0,14.24,1.68,18.63,5.04c4.39,3.36,6.59,8.08,6.59,14.16c0,3.84-1.45,7.4-4.35,10.69c-2.9,3.29-6.83,5.82-11.77,7.6
		l16.63,27.08c1.44,2.37,3.3,4.11,5.57,5.24c2.27,1.13,5.21,1.91,8.82,2.34C399.93,250.77,400.19,251.25,400.19,252.15z
		 M372.65,197.99c0-10.55-4.59-15.82-13.77-15.82c-3.02,0-5.32,0.24-6.89,0.73c-1.57,0.49-2.61,1.26-3.13,2.3
		c-0.52,1.05-0.78,2.89-0.78,5.53v24.11c2.09,0.29,4.72,0.43,7.88,0.43c5.8,0,10.03-1.37,12.69-4.12
		C371.31,208.41,372.65,204.02,372.65,197.99z"/>
	<path class="st3" d="M445.6,208.6c0,0.92-0.29,1.41-0.86,1.49c-2.45,0.25-4.33,0.97-5.64,2.15c-1.31,1.18-2.76,3.5-4.35,6.98
		l-25.49,55.08c-2.84,5.9-6.16,8.86-9.94,8.86c-1.84,0-3.3-0.5-4.4-1.48c-1.1-0.99-1.65-2.26-1.65-3.81c0-1.62,0.49-2.94,1.48-3.97
		s2.3-1.54,3.95-1.54c0.78,0,1.66,0.27,2.67,0.81c0.65,0.32,1.12,0.49,1.41,0.49c1.2,0,2.6-2.02,4.22-6.05l6.75-14.58l-12.59-33.8
		c-1.33-3.3-2.67-5.57-4.02-6.82c-1.35-1.25-3.18-2.02-5.48-2.31c-0.58-0.07-0.86-0.57-0.86-1.49c0-0.99,0.27-1.49,0.82-1.49
		c1.4,0,3.1,0.11,5.11,0.32c2.25,0.22,4.23,0.32,5.93,0.32c1.67,0,3.75-0.11,6.24-0.32c2.28-0.22,4.16-0.32,5.64-0.32
		c0.58,0,0.86,0.5,0.86,1.49c0,0.92-0.29,1.41-0.86,1.49c-3.76,0.47-5.64,1.56-5.64,3.26c0,1.2,0.49,3.15,1.48,5.87l8.7,22.28
		l10.31-22.28c0.89-2.05,1.34-3.74,1.34-5.08c0-2.27-1.74-3.62-5.22-4.05c-0.58-0.07-0.86-0.56-0.86-1.46
		c0-1.01,0.29-1.51,0.86-1.51c1.51,0,3.2,0.11,5.06,0.32c1.82,0.22,3.47,0.32,4.96,0.32c0.74,0,1.95-0.09,3.62-0.27
		c2.3-0.25,4.16-0.38,5.57-0.38C445.3,207.11,445.6,207.61,445.6,208.6z"/>
	<path class="st3" d="M496.47,230.66c0,7.17-2.33,13.06-7,17.69c-4.67,4.63-10.71,6.94-18.14,6.94c-7.42,0-13.48-2.32-18.16-6.97
		c-4.69-4.64-7.03-10.53-7.03-17.66c0-7.24,2.36-13.26,7.08-18.06c4.72-4.81,10.76-7.21,18.11-7.21c7.39,0,13.42,2.39,18.11,7.18
		C494.12,217.36,496.47,223.39,496.47,230.66z M485.56,230.55c0-6.59-1.27-11.85-3.81-15.79c-2.54-3.94-6.02-5.91-10.45-5.91
		c-4.39,0-7.87,1.98-10.42,5.94c-2.56,3.96-3.83,9.22-3.83,15.77c0,6.52,1.26,11.69,3.78,15.52c2.52,3.83,6.01,5.75,10.48,5.75
		c4.46,0,7.96-1.9,10.48-5.7C484.3,242.33,485.56,237.14,485.56,230.55z"/>
	<path class="st3" d="M559.16,252.15c0,1.01-0.29,1.51-0.86,1.51c-1.44,0-3.29-0.11-5.56-0.32c-2.48-0.22-4.61-0.32-6.37-0.32
		c-1.76,0-3.98,0.11-6.64,0.32c-2.48,0.22-4.45,0.32-5.89,0.32c-0.58,0-0.86-0.5-0.86-1.51c0-0.9,0.29-1.38,0.86-1.46
		c0.94-0.11,1.6-0.29,2-0.54c0.4-0.25,0.59-0.74,0.59-1.46c0-1.08-1.73-3.46-5.18-7.13l-8.64-9.61c-0.72-0.72-1.69-1.08-2.92-1.08
		v10.69c0,3.17,0.39,5.42,1.16,6.75c0.77,1.33,2.22,2.12,4.35,2.38c0.58,0.07,0.86,0.56,0.86,1.46c0,1.01-0.29,1.51-0.86,1.51
		c-1.55,0-3.56-0.11-6.04-0.32c-2.36-0.22-4.22-0.32-5.58-0.32c-1.54,0-3.41,0.11-5.6,0.32c-2.09,0.22-3.82,0.32-5.18,0.32
		c-0.58,0-0.86-0.5-0.86-1.51c0-0.9,0.29-1.38,0.86-1.46c3.02-0.32,4.99-1.03,5.89-2.13c0.9-1.1,1.35-3.43,1.35-6.99v-50.12
		c0-2.91-0.35-4.82-1.05-5.72c-0.7-0.9-2.33-1.49-4.89-1.78c-0.58-0.07-0.86-0.53-0.86-1.38c0-0.95,0.29-1.43,0.86-1.43
		c6.14-1.44,10.69-3.35,13.62-5.72c0.54-0.43,0.99-0.65,1.34-0.65c1,0,1.5,0.29,1.5,0.87c-0.58,5.91-0.86,12.18-0.86,18.81v33.46
		c1.3,0,2.32-0.34,3.08-1.03l8.05-7.63c0.25-0.25,0.67-0.63,1.24-1.14c2.99-2.73,4.48-4.75,4.48-6.06c0-0.95-1.44-1.6-4.32-1.96
		c-0.58-0.07-0.86-0.57-0.86-1.49c0-0.99,0.29-1.49,0.86-1.49c1.51,0,3.42,0.11,5.72,0.32c2.12,0.22,3.89,0.32,5.29,0.32
		c1.04,0,2.39-0.09,4.05-0.27c2.02-0.25,3.82-0.38,5.4-0.38c0.58,0,0.86,0.5,0.86,1.49c0,0.92-0.29,1.41-0.86,1.49
		c-2.63,0.29-4.92,0.91-6.88,1.86s-4.62,2.91-7.96,5.89l-9.29,8.23l14.15,15.5c2.99,3.28,5.51,5.53,7.56,6.75
		c2.05,1.22,4.73,2.02,8.05,2.38C558.87,250.77,559.16,251.25,559.16,252.15z"/>
	<path class="st3" d="M609.65,230.66c0,7.17-2.33,13.06-7,17.69c-4.67,4.63-10.71,6.94-18.14,6.94s-13.48-2.32-18.16-6.97
		c-4.69-4.64-7.03-10.53-7.03-17.66c0-7.24,2.36-13.26,7.08-18.06c4.72-4.81,10.76-7.21,18.11-7.21c7.39,0,13.42,2.39,18.11,7.18
		C607.31,217.36,609.65,223.39,609.65,230.66z M598.74,230.55c0-6.59-1.27-11.85-3.81-15.79c-2.54-3.94-6.02-5.91-10.45-5.91
		c-4.39,0-7.87,1.98-10.42,5.94c-2.56,3.96-3.83,9.22-3.83,15.77c0,6.52,1.26,11.69,3.78,15.52c2.52,3.83,6.01,5.75,10.48,5.75
		c4.46,0,7.96-1.9,10.48-5.7C597.48,242.33,598.74,237.14,598.74,230.55z"/>
	<path class="st3" d="M724.83,216.51c0,11.41-3.67,20.75-11.02,28c-7.34,7.25-16.94,10.88-28.78,10.88s-21.43-3.63-28.75-10.88
		c-7.33-7.25-10.99-16.59-10.99-28c0-11.45,3.69-20.91,11.07-28.38c7.38-7.47,16.94-11.21,28.67-11.21
		c11.77,0,21.35,3.74,28.73,11.21C721.14,195.6,724.83,205.06,724.83,216.51z M712.95,216.51c0-10.62-2.57-19.3-7.7-26.03
		c-5.13-6.73-11.87-10.1-20.22-10.1c-8.39,0-15.13,3.37-20.22,10.1c-5.09,6.73-7.64,15.41-7.64,26.03c0,10.55,2.53,19.09,7.59,25.62
		c5.06,6.53,11.82,9.8,20.28,9.8c8.42,0,15.18-3.27,20.28-9.8C710.4,235.6,712.95,227.06,712.95,216.51z"/>
	<path class="st3" d="M788.66,252.15c0,1.01-0.29,1.51-0.86,1.51c-1.44,0-3.29-0.11-5.56-0.32c-2.48-0.22-4.61-0.32-6.37-0.32
		c-1.76,0-3.98,0.11-6.64,0.32c-2.48,0.22-4.45,0.32-5.89,0.32c-0.58,0-0.86-0.5-0.86-1.51c0-0.9,0.29-1.38,0.86-1.46
		c0.94-0.11,1.6-0.29,2-0.54c0.4-0.25,0.59-0.74,0.59-1.46c0-1.08-1.73-3.46-5.18-7.13l-8.64-9.61c-0.72-0.72-1.69-1.08-2.92-1.08
		v10.69c0,3.17,0.39,5.42,1.16,6.75c0.77,1.33,2.22,2.12,4.35,2.38c0.58,0.07,0.86,0.56,0.86,1.46c0,1.01-0.29,1.51-0.86,1.51
		c-1.55,0-3.56-0.11-6.04-0.32c-2.36-0.22-4.22-0.32-5.58-0.32c-1.54,0-3.41,0.11-5.6,0.32c-2.09,0.22-3.82,0.32-5.18,0.32
		c-0.58,0-0.86-0.5-0.86-1.51c0-0.9,0.29-1.38,0.86-1.46c3.02-0.32,4.99-1.03,5.89-2.13c0.9-1.1,1.35-3.43,1.35-6.99v-50.12
		c0-2.91-0.35-4.82-1.05-5.72c-0.7-0.9-2.33-1.49-4.89-1.78c-0.58-0.07-0.86-0.53-0.86-1.38c0-0.95,0.29-1.43,0.86-1.43
		c6.14-1.44,10.69-3.35,13.62-5.72c0.54-0.43,0.99-0.65,1.34-0.65c1,0,1.5,0.29,1.5,0.87c-0.58,5.91-0.86,12.18-0.86,18.81v33.46
		c1.3,0,2.32-0.34,3.08-1.03l8.05-7.63c0.25-0.25,0.67-0.63,1.24-1.14c2.99-2.73,4.48-4.75,4.48-6.06c0-0.95-1.44-1.6-4.32-1.96
		c-0.58-0.07-0.86-0.57-0.86-1.49c0-0.99,0.29-1.49,0.86-1.49c1.51,0,3.42,0.11,5.72,0.32c2.12,0.22,3.89,0.32,5.29,0.32
		c1.04,0,2.39-0.09,4.05-0.27c2.02-0.25,3.82-0.38,5.4-0.38c0.58,0,0.86,0.5,0.86,1.49c0,0.92-0.29,1.41-0.86,1.49
		c-2.63,0.29-4.92,0.91-6.88,1.86s-4.62,2.91-7.96,5.89l-9.29,8.23l14.15,15.5c2.99,3.28,5.51,5.53,7.56,6.75
		c2.05,1.22,4.73,2.02,8.05,2.38C788.37,250.77,788.66,251.25,788.66,252.15z"/>
	<path class="st3" d="M827.22,254.85c-2,0-3.75-0.5-5.23-1.49c-1.49-0.99-2.5-2.33-3.03-4.02c-3.85,3.96-8.89,5.94-15.12,5.94
		c-3.24,0-5.89-1-7.94-3c-2.05-2-3.08-4.49-3.08-7.48c0-7.38,8.75-13.36,26.24-17.93l0.32-8.42v-0.27c0-2.59-0.64-4.65-1.92-6.18
		c-1.28-1.53-2.98-2.29-5.1-2.29c-2.12,0-3.92,0.51-5.4,1.54c-1.48,1.03-2.23,2.31-2.27,3.86c-0.04,2.3-0.64,4.1-1.81,5.4
		s-2.73,1.94-4.67,1.94c-1.15,0-2.09-0.34-2.81-1.03c-0.72-0.68-1.08-1.6-1.08-2.75c0-2.77,2.52-5.68,7.56-8.72
		c5.04-3.04,9.72-4.56,14.04-4.56c3.89,0,7.04,1.15,9.45,3.46c2.41,2.3,3.62,5.4,3.62,9.29v0.65l-0.81,24.41v0.38
		c0,3.78,1.22,5.67,3.67,5.67c1.19,0,2.57-0.72,4.16-2.16l0.38-0.11c0.29,0,0.56,0.19,0.81,0.57c0.25,0.38,0.38,0.78,0.38,1.22
		c0,1.04-1.09,2.32-3.27,3.83C832.14,254.09,829.77,254.85,827.22,254.85z M818.95,230.5c-10.48,2.38-15.71,6.32-15.71,11.8
		c0,5.13,1.97,7.69,5.92,7.69c1.9,0,3.77-0.48,5.62-1.43c1.85-0.96,3.09-2.14,3.74-3.55L818.95,230.5z"/>
</g>
<g>
	<path class="st3" d="M457.91,97.69c0,0.25-0.08,0.48-0.24,0.69s-0.34,0.31-0.53,0.31c-1.58,0.15-2.87,0.66-3.87,1.53
		c-1,0.87-2.04,2.52-3.1,4.97l-16.32,36.77c-0.11,0.34-0.41,0.51-0.9,0.51c-0.38,0-0.68-0.17-0.9-0.51l-9.16-19.1l-10.52,19.1
		c-0.21,0.34-0.51,0.51-0.9,0.51c-0.47,0-0.78-0.17-0.93-0.51l-16.03-36.77c-1-2.29-2.06-3.9-3.17-4.81
		c-1.11-0.91-2.66-1.47-4.64-1.69c-0.17,0-0.33-0.09-0.48-0.27c-0.15-0.18-0.22-0.38-0.22-0.61c0-0.59,0.17-0.88,0.51-0.88
		c1.43,0,2.92,0.06,4.48,0.19c1.45,0.13,2.82,0.19,4.1,0.19c1.3,0,2.84-0.06,4.61-0.19c1.86-0.13,3.5-0.19,4.93-0.19
		c0.34,0,0.51,0.29,0.51,0.88c0,0.59-0.11,0.88-0.32,0.88c-1.43,0.11-2.56,0.47-3.38,1.09c-0.82,0.62-1.23,1.44-1.23,2.44
		c0,0.52,0.17,1.16,0.51,1.93l13.08,29.99l7.69-14.28l-7.02-14.68c-1.26-2.64-2.29-4.34-3.1-5.1c-0.81-0.76-2.04-1.23-3.68-1.4
		c-0.15,0-0.29-0.09-0.43-0.27c-0.14-0.18-0.21-0.38-0.21-0.61c0-0.59,0.15-0.88,0.45-0.88c1.43,0,2.74,0.06,3.94,0.19
		c1.15,0.13,2.38,0.19,3.68,0.19c1.28,0,2.63-0.06,4.06-0.19c1.47-0.13,2.92-0.19,4.35-0.19c0.34,0,0.51,0.29,0.51,0.88
		c0,0.59-0.11,0.88-0.32,0.88c-2.86,0.19-4.29,1.01-4.29,2.45c0,0.64,0.33,1.64,0.99,2.99l4.64,9.41l4.61-8.61
		c0.64-1.22,0.96-2.25,0.96-3.09c0-1.97-1.43-3.02-4.29-3.15c-0.26,0-0.38-0.29-0.38-0.88c0-0.21,0.06-0.41,0.19-0.6
		s0.26-0.28,0.38-0.28c1.02,0,2.28,0.06,3.78,0.19c1.43,0.13,2.6,0.19,3.52,0.19c0.66,0,1.63-0.05,2.91-0.16
		c1.62-0.15,2.98-0.22,4.06-0.22c0.26,0,0.38,0.25,0.38,0.75c0,0.67-0.24,1.01-0.7,1.01c-1.66,0.17-3,0.63-4.02,1.38
		c-1.01,0.75-2.28,2.46-3.79,5.11l-6.14,11.38l8.31,16.95l12.3-28.58c0.43-1.05,0.64-2.02,0.64-2.9c0-2.1-1.43-3.22-4.29-3.35
		c-0.26,0-0.38-0.29-0.38-0.88c0-0.59,0.19-0.88,0.58-0.88c1.04,0,2.28,0.06,3.71,0.19c1.32,0.13,2.43,0.19,3.33,0.19
		c0.94,0,2.03-0.06,3.26-0.19c1.28-0.13,2.43-0.19,3.45-0.19C457.76,96.94,457.91,97.19,457.91,97.69z"/>
	<path class="st3" d="M475.16,123.28c0,0.6-0.38,0.9-1.15,0.9h-17.54c-0.13,1.15-0.19,2.35-0.19,3.58c0,3.43,0.82,6.08,2.45,7.92
		c1.63,1.85,3.95,2.77,6.96,2.77c1.51,0,3.04-0.41,4.58-1.22c1.54-0.81,2.77-1.84,3.71-3.1l0.16-0.06c0.19,0,0.38,0.12,0.56,0.35
		c0.18,0.24,0.27,0.51,0.27,0.83c0,0.45-0.68,1.38-2.05,2.8c-1.37,1.42-2.85,2.5-4.45,3.25s-3.27,1.12-5.02,1.12
		c-3.84,0-7.07-1.41-9.7-4.22c-2.62-2.82-3.94-6.27-3.94-10.37c0-4.18,1.28-7.72,3.86-10.62c2.57-2.9,5.83-4.35,9.78-4.35
		c3.31,0,6.08,1.08,8.34,3.25C474.03,118.26,475.16,120.65,475.16,123.28z M469.33,120.46c0-1.6-0.55-2.93-1.65-3.98
		c-1.1-1.06-2.51-1.58-4.24-1.58c-1.64,0-3.07,0.69-4.27,2.06c-1.21,1.38-2.02,3.18-2.45,5.42l8.9-0.26
		c1.34-0.02,2.3-0.15,2.86-0.38C469.05,121.5,469.33,121.08,469.33,120.46z"/>
	<path class="st3" d="M510.07,127.5c0,3.92-1.39,7.39-4.17,10.4c-2.78,3.01-5.99,4.51-9.64,4.51c-2.03,0-3.99-0.43-5.89-1.28
		c-1.3-0.6-2.46-0.9-3.46-0.9c-1.6,0-2.66,0.68-3.17,2.05c-0.11,0.26-0.38,0.38-0.8,0.38c-0.56,0-0.83-0.17-0.83-0.51
		c0.17-1.79,0.26-3.94,0.26-6.46v-31.18c0-1.73-0.22-2.86-0.66-3.39s-1.39-0.88-2.86-1.02c-0.34,0-0.51-0.26-0.51-0.78
		c0-0.61,0.17-0.91,0.51-0.91c3.78-0.98,6.48-2.11,8.07-3.39c0.32-0.26,0.58-0.38,0.8-0.38c0.6,0,0.89,0.17,0.89,0.51
		c-0.34,4.65-0.51,8.38-0.51,11.2v9.57c2.01-2,4.47-3.01,7.38-3.01c4.34,0,7.86,1.31,10.56,3.94
		C508.72,119.47,510.07,123.02,510.07,127.5z M503.6,127.77c0-3.93-0.78-7.01-2.34-9.23c-1.56-2.22-3.75-3.33-6.57-3.33
		c-1.52,0-3,0.57-4.44,1.71s-2.16,2.28-2.16,3.41v14.81c0,1.13,0.86,2.28,2.58,3.45c1.72,1.17,3.32,1.75,4.79,1.75
		c2.56,0,4.56-1.14,6-3.43C502.89,134.62,503.6,131.57,503.6,127.77z"/>
	<path class="st3" d="M578.55,119.5c0,6.57-2.2,11.87-6.59,15.9c-4.4,4.03-10.34,6.05-17.82,6.05c-0.94,0-2.84-0.04-5.7-0.13
		c-2.94-0.08-4.91-0.13-5.89-0.13c-3.97,0-7.83,0.08-11.58,0.26c-0.34,0-0.51-0.3-0.51-0.9c0-0.53,0.17-0.82,0.51-0.86
		c1.77-0.21,3.12-0.5,4.06-0.85c0.94-0.35,1.59-0.83,1.97-1.42c0.37-0.6,0.56-1.64,0.56-3.14v-30.01c0-1.47-0.18-2.51-0.53-3.12
		c-0.35-0.61-1-1.09-1.94-1.46c-0.94-0.36-2.32-0.65-4.13-0.87c-0.34,0-0.51-0.29-0.51-0.88c0-0.59,0.17-0.88,0.51-0.88
		c2.5,0.17,6.36,0.26,11.58,0.26c0.98,0,2.94-0.03,5.89-0.1c2.86-0.06,4.76-0.1,5.7-0.1c7.3,0,13.19,2.09,17.68,6.26
		C576.3,107.56,578.55,112.93,578.55,119.5z M571.51,119.5c0-5.81-1.66-10.65-4.98-14.5s-7.47-5.79-12.46-5.79h-0.19l-6.02,0.13
		c-2.52,0.09-3.78,1.33-3.78,3.72v32.47c0,2.44,1.26,3.65,3.78,3.65l6.02,0.19c4.97,0,9.15-1.9,12.54-5.69
		C569.81,129.89,571.51,125.16,571.51,119.5z"/>
	<path class="st3" d="M609.04,123.28c0,0.6-0.38,0.9-1.15,0.9h-17.54c-0.13,1.15-0.19,2.35-0.19,3.58c0,3.43,0.82,6.08,2.45,7.92
		c1.63,1.85,3.95,2.77,6.96,2.77c1.51,0,3.04-0.41,4.58-1.22c1.54-0.81,2.77-1.84,3.71-3.1l0.16-0.06c0.19,0,0.38,0.12,0.56,0.35
		c0.18,0.24,0.27,0.51,0.27,0.83c0,0.45-0.68,1.38-2.05,2.8c-1.37,1.42-2.85,2.5-4.45,3.25c-1.6,0.75-3.28,1.12-5.02,1.12
		c-3.84,0-7.07-1.41-9.7-4.22c-2.62-2.82-3.94-6.27-3.94-10.37c0-4.18,1.29-7.72,3.86-10.62c2.57-2.9,5.83-4.35,9.78-4.35
		c3.31,0,6.08,1.08,8.34,3.25S609.04,120.65,609.04,123.28z M603.22,120.46c0-1.6-0.55-2.93-1.65-3.98
		c-1.1-1.06-2.51-1.58-4.24-1.58c-1.64,0-3.07,0.69-4.27,2.06s-2.02,3.18-2.45,5.42l8.9-0.26c1.34-0.02,2.3-0.15,2.86-0.38
		C602.94,121.5,603.22,121.08,603.22,120.46z"/>
	<path class="st3" d="M633.81,133.2c0,2.6-1.02,4.79-3.07,6.56s-4.52,2.66-7.41,2.66c-1.02,0-2.6-0.22-4.73-0.67
		c-1.6-0.32-2.68-0.48-3.26-0.48c-0.17-1.49-0.56-3.76-1.18-6.82c0-0.32,0.31-0.48,0.93-0.48c0.51,0,0.82,0.17,0.93,0.51
		c0.49,1.58,1.46,2.96,2.91,4.13c1.45,1.17,2.94,1.76,4.48,1.76c1.6,0,2.84-0.44,3.73-1.31c0.89-0.88,1.33-2.1,1.33-3.68
		c0-1-0.37-1.89-1.1-2.66s-2.33-1.72-4.78-2.85c-3.22-1.47-5.35-2.86-6.38-4.16c-1.04-1.3-1.55-2.86-1.55-4.67
		c0-2.24,0.97-4.17,2.91-5.78c1.94-1.61,4.24-2.42,6.88-2.42c1.11,0,2.67,0.19,4.67,0.58c1.11,0.21,1.83,0.32,2.18,0.32
		c0.06,2.52,0.2,4.66,0.42,6.43c0,0.32-0.31,0.48-0.93,0.48c-0.53,0-0.83-0.17-0.9-0.51c-0.23-1.56-0.82-2.82-1.75-3.79
		c-0.94-0.97-2.05-1.46-3.35-1.46c-3.32,0-4.98,1.45-4.98,4.35c0,0.98,0.39,1.89,1.18,2.72c0.79,0.83,2.5,1.91,5.13,3.23
		c3.14,1.58,5.21,2.94,6.21,4.1S633.81,131.74,633.81,133.2z"/>
	<path class="st3" d="M652.88,140.56c0,0.6-0.17,0.9-0.51,0.9c-0.88,0-2-0.06-3.36-0.19c-1.53-0.13-2.82-0.19-3.86-0.19
		c-1.06,0-2.33,0.06-3.82,0.19c-1.34,0.13-2.45,0.19-3.33,0.19c-0.34,0-0.51-0.3-0.51-0.9c0-0.53,0.17-0.82,0.51-0.86
		c1.81-0.23,2.98-0.67,3.5-1.31c0.52-0.64,0.78-2,0.78-4.09v-11.82c0-1.71-0.22-2.82-0.66-3.36c-0.44-0.53-1.39-0.88-2.86-1.05
		c-0.34,0-0.51-0.28-0.51-0.85c0-0.52,0.17-0.78,0.51-0.78c2.23-0.58,4.06-1.19,5.49-1.84c1.42-0.65,2.32-1.19,2.68-1.62
		c0.21-0.26,0.45-0.38,0.7-0.38c0.59,0,0.89,0.17,0.89,0.51c-0.34,4.78-0.51,8.49-0.51,11.13v10.05c0,2.09,0.26,3.46,0.78,4.1
		c0.52,0.64,1.71,1.08,3.57,1.31C652.71,139.73,652.88,140.02,652.88,140.56z M648.4,101.87c0,0.9-0.33,1.67-0.98,2.34
		c-0.65,0.66-1.44,0.99-2.35,0.99s-1.7-0.33-2.35-0.99c-0.65-0.66-0.98-1.44-0.98-2.34c0-0.94,0.32-1.73,0.96-2.37
		c0.64-0.64,1.43-0.96,2.37-0.96c0.92,0,1.7,0.32,2.35,0.96C648.08,100.14,648.4,100.93,648.4,101.87z"/>
	<path class="st3" d="M684.37,117.58c0,1.15-0.28,1.73-0.83,1.73l-4.06-0.13c0.47,1.22,0.7,2.45,0.7,3.71
		c0,3.07-1.12,5.63-3.37,7.68c-2.24,2.05-4.99,3.07-8.24,3.07h-1.28c-1.7,0-3.05,0.22-4.05,0.67c-1,0.45-1.5,0.97-1.5,1.57
		c0,0.75,0.42,1.36,1.25,1.84c0.83,0.48,1.99,0.73,3.48,0.75l7.4,0.1c3.19,0.06,5.67,0.74,7.45,2.02c1.78,1.28,2.66,3.06,2.66,5.34
		c0,3.46-1.88,6.47-5.63,9.06c-3.75,2.58-8.19,3.87-13.33,3.87c-3.37,0-6.2-0.82-8.5-2.46s-3.45-3.63-3.45-5.98
		c0-1.58,0.73-3.12,2.19-4.62c1.46-1.5,3.18-2.6,5.17-3.31c-1.32-0.6-2.4-1.45-3.23-2.55c-0.83-1.1-1.25-2.2-1.25-3.29
		c0-0.77,0.78-1.59,2.35-2.47c1.57-0.88,3.19-1.46,4.88-1.76c-1.83-0.9-3.26-2.09-4.29-3.58c-1.02-1.49-1.54-3.16-1.54-4.99
		c0-2.95,1.13-5.52,3.4-7.71c2.27-2.2,4.97-3.3,8.1-3.3c1.66,0,3.3,0.29,4.91,0.86c1.61,0.58,2.94,1.36,3.98,2.34l5.79-0.19
		C684.09,115.85,684.37,116.43,684.37,117.58z M679.99,148.32c0-1.47-0.49-2.52-1.46-3.16c-0.97-0.64-2.6-0.98-4.88-1.02l-7.42-0.16
		c-1.47,0-2.77-0.21-3.9-0.64c-2.6,1.43-3.9,3.3-3.9,5.62c0,2.11,0.89,3.82,2.66,5.12c1.77,1.31,4.02,1.96,6.75,1.96
		c3.29,0,6.13-0.75,8.54-2.23S679.99,150.49,679.99,148.32z M674.19,122.83c0-2.73-0.42-4.74-1.26-6.02
		c-0.84-1.28-2.19-1.92-4.04-1.92c-3.53,0-5.3,2.99-5.3,8.96c0,2.71,0.41,4.68,1.23,5.9c0.82,1.23,2.17,1.84,4.07,1.84
		C672.43,131.6,674.19,128.67,674.19,122.83z"/>
	<path class="st3" d="M718.67,140.56c0,0.6-0.17,0.9-0.51,0.9c-0.85,0-1.9-0.06-3.14-0.19c-1.36-0.13-2.57-0.19-3.61-0.19
		c-1.06,0-2.29,0.06-3.67,0.19c-1.25,0.13-2.31,0.19-3.16,0.19c-0.34,0-0.51-0.3-0.51-0.9c0-0.53,0.17-0.82,0.51-0.86
		c1.47-0.17,2.44-0.59,2.9-1.25c0.46-0.66,0.69-2.05,0.69-4.16V123.6c0-2.39-0.47-4.14-1.41-5.25c-0.94-1.11-2.39-1.66-4.35-1.66
		c-1.24,0-2.33,0.23-3.28,0.7c-0.95,0.47-1.97,1.3-3.06,2.5v14.4c0,2.11,0.23,3.5,0.69,4.16c0.46,0.66,1.42,1.08,2.9,1.25
		c0.34,0.04,0.51,0.33,0.51,0.86c0,0.6-0.17,0.9-0.51,0.9c-0.88,0-1.94-0.06-3.2-0.19c-1.39-0.13-2.6-0.19-3.65-0.19
		c-1.02,0-2.22,0.06-3.58,0.19c-1.26,0.13-2.33,0.19-3.2,0.19c-0.34,0-0.51-0.3-0.51-0.9c0-0.53,0.17-0.82,0.51-0.86
		c1.83-0.23,3.02-0.68,3.55-1.33s0.8-2.01,0.8-4.07v-11.82c0-1.71-0.22-2.82-0.66-3.36c-0.44-0.53-1.41-0.88-2.93-1.05
		c-0.34,0-0.51-0.28-0.51-0.85c0-0.52,0.17-0.78,0.51-0.78c2.11-0.53,3.87-1.14,5.28-1.81c1.41-0.67,2.29-1.22,2.66-1.65
		c0.21-0.26,0.45-0.38,0.7-0.38c0.6,0,0.9,0.17,0.9,0.51l-0.26,4.03c3.07-2.86,5.92-4.29,8.56-4.29c2.9,0,5.16,0.83,6.79,2.5
		s2.44,3.9,2.44,6.72v12.22c0,2.09,0.26,3.46,0.78,4.1s1.69,1.08,3.5,1.31C718.5,139.73,718.67,140.02,718.67,140.56z"/>
	<path class="st3" d="M746.64,123.28c0,0.6-0.38,0.9-1.15,0.9h-17.54c-0.13,1.15-0.19,2.35-0.19,3.58c0,3.43,0.82,6.08,2.45,7.92
		c1.63,1.85,3.95,2.77,6.96,2.77c1.51,0,3.04-0.41,4.58-1.22c1.54-0.81,2.77-1.84,3.71-3.1l0.16-0.06c0.19,0,0.38,0.12,0.56,0.35
		c0.18,0.24,0.27,0.51,0.27,0.83c0,0.45-0.68,1.38-2.05,2.8c-1.37,1.42-2.85,2.5-4.45,3.25c-1.6,0.75-3.28,1.12-5.02,1.12
		c-3.84,0-7.07-1.41-9.7-4.22c-2.62-2.82-3.94-6.27-3.94-10.37c0-4.18,1.29-7.72,3.86-10.62c2.57-2.9,5.83-4.35,9.78-4.35
		c3.31,0,6.08,1.08,8.34,3.25S746.64,120.65,746.64,123.28z M740.81,120.46c0-1.6-0.55-2.93-1.65-3.98
		c-1.1-1.06-2.51-1.58-4.24-1.58c-1.64,0-3.07,0.69-4.27,2.06s-2.02,3.18-2.45,5.42l8.9-0.26c1.34-0.02,2.3-0.15,2.86-0.38
		C740.53,121.5,740.81,121.08,740.81,120.46z"/>
	<path class="st3" d="M772.81,116.04c0,0.85-0.26,1.58-0.78,2.18c-0.52,0.6-1.16,0.9-1.9,0.9c-0.94,0-1.87-0.31-2.78-0.93
		c-0.73-0.49-1.35-0.74-1.89-0.74c-1.39,0-2.82,0.81-4.29,2.43v14.4c0,1.86,0.32,3.15,0.96,3.89s2,1.24,4.1,1.52
		c0.34,0.04,0.51,0.33,0.51,0.86c0,0.6-0.17,0.9-0.51,0.9c-0.88,0-2.11-0.06-3.71-0.19c-1.77-0.13-3.17-0.19-4.21-0.19
		c-1.06,0-2.35,0.06-3.86,0.19c-1.37,0.13-2.49,0.19-3.36,0.19c-0.34,0-0.51-0.3-0.51-0.9c0-0.53,0.17-0.82,0.51-0.86
		c1.86-0.23,3.04-0.67,3.57-1.31c0.52-0.64,0.78-2,0.78-4.09v-11.82c0-1.71-0.22-2.82-0.66-3.36c-0.44-0.53-1.41-0.88-2.93-1.05
		c-0.34,0-0.51-0.28-0.51-0.85c0-0.52,0.17-0.78,0.51-0.78c2.11-0.53,3.85-1.12,5.22-1.78c1.37-0.65,2.27-1.21,2.69-1.68
		c0.25-0.26,0.51-0.38,0.76-0.38c0.59,0,0.89,0.17,0.89,0.51l-0.26,4.03c1.71-1.58,3.17-2.69,4.4-3.33
		c1.23-0.64,2.45-0.96,3.66-0.96c0.98,0,1.82,0.32,2.53,0.96C772.46,114.44,772.81,115.19,772.81,116.04z"/>
</g>
</svg>
