<?xml version="1.0" encoding="utf-8"?>
<!-- Generator: Adobe Illustrator 23.1.1, SVG Export Plug-In . SVG Version: 6.00 Build 0)  -->
<svg version="1.1" id="Layer_1" xmlns="http://www.w3.org/2000/svg" xmlns:xlink="http://www.w3.org/1999/xlink" x="0px" y="0px"
	 viewBox="0 0 250 285.57" style="enable-background:new 0 0 250 285.57;" xml:space="preserve">
<style type="text/css">
	.st0{fill:#F48059;}
	.st1{fill:#EC1C24;}
	.st2{fill:#FBC3B4;}
	.st3{fill:#F48366;}
	.st4{enable-background:new    ;}
</style>
<path class="st0" d="M31.16,151.3l-0.11-3c0.4-0.02,39.71-1.89,58.45-34.74l2.61,1.49C72.52,149.37,31.57,151.28,31.16,151.3z"/>
<path class="st1" d="M31.4,156.3v-3c0.37,0,38.21-1.36,58.96-31.55c1.17-1.75,2.38-3.77,3.55-5.72l2.57,1.54
	c-1.19,1.98-2.42,4.03-3.64,5.86C71.22,154.89,31.79,156.3,31.4,156.3z"/>
<path class="st2" d="M31.01,146.3l-0.23-2.99l0.15-0.01c5.67-0.37,34.79-3.45,51.23-27.25c0.66-0.96,1.28-1.95,1.94-3.01
	c0.4-0.65,0.81-1.3,1.24-1.96l2.52,1.63c-0.41,0.64-0.81,1.28-1.21,1.92c-0.65,1.03-1.31,2.1-2.01,3.12
	c-17.23,24.94-47.59,28.15-53.5,28.54L31.01,146.3z"/>
<path class="st2" d="M203.09,208.5c-10.24-0.73-36.61-3.85-60.42-16.98c-29.42-16.19-45.63-41.93-48.17-76.5l2.99-0.22
	c2.46,33.5,18.15,58.43,46.63,74.1c23.29,12.85,49.15,15.9,59.18,16.62L203.09,208.5z"/>
<path class="st1" d="M192.81,217.49c-14.05-1.82-34.97-6.28-54.83-17.17c-33.52-18.49-51.55-48.01-53.58-87.74l3-0.15
	c1.97,38.62,19.48,67.31,52.03,85.26c19.45,10.67,39.97,15.04,53.77,16.83L192.81,217.49z"/>
<path class="st0" d="M197.74,212.99c-13.82-1.46-40.46-6.11-63.6-20.85c-27.89-17.76-42.95-44.63-44.74-79.86l3-0.15
	c1.33,26.21,14.3,88.22,105.66,97.88L197.74,212.99z"/>
<path class="st2" d="M77.72,228.38l-2.84-0.96c5.33-15.72,17.9-58.24,19.52-113.46l3,0.09C95.77,169.67,83.09,212.53,77.72,228.38z"
	/>
<path class="st1" d="M69.23,222.27l-2.85-0.94c6.21-18.95,16.83-58.36,18.13-109.47l3,0.08C86.19,163.43,75.49,203.17,69.23,222.27z
	"/>
<path class="st0" d="M73.12,226.28l-2.84-0.96c6.6-19.57,17.85-60.32,19.12-113.36l3,0.07C91.12,165.47,79.77,206.55,73.12,226.28z"
	/>
<g>
	<path class="st1" d="M93.7,65.5c7.1,0,13.9,2.7,19.1,7.5c5.5,5.1,8.7,12.1,9,19.6s-2.4,14.7-7.5,20.3c-5.3,5.8-12.9,9.1-20.7,9.1
		c-7.1,0-13.9-2.7-19.1-7.5c-5.5-5.1-8.7-12.1-9-19.6s2.4-14.7,7.5-20.3C78.3,68.8,85.9,65.5,93.7,65.5 M93.7,62.5
		c-8.7,0-17,3.7-22.9,10c-5.7,6.1-8.6,14.1-8.3,22.4s3.9,16,10,21.7c5.8,5.3,13.3,8.3,21.2,8.3c8.7,0,17-3.7,22.9-10
		c5.6-6.1,8.6-14.1,8.2-22.4c-0.3-8.3-3.9-16-10-21.7C109.1,65.5,101.6,62.5,93.7,62.5L93.7,62.5z"/>
</g>
<g>
	<path class="st0" d="M93.7,70.5c5.8,0,11.4,2.2,15.7,6.2c4.5,4.2,7.2,9.9,7.4,16.1c0.2,6.2-1.9,12.1-6.1,16.7
		c-4.4,4.7-10.6,7.5-17.1,7.5c-5.8,0-11.4-2.2-15.7-6.2c-4.6-4.2-7.2-9.9-7.4-16.1s1.9-12.1,6.1-16.7C81,73.3,87.3,70.5,93.7,70.5
		 M93.7,67.5c-7.3,0-14.3,3.1-19.3,8.4c-4.8,5.1-7.2,11.8-6.9,18.8s3.3,13.5,8.4,18.2c4.9,4.5,11.2,7,17.8,7
		c7.3,0,14.3-3.1,19.3-8.4c4.7-5.1,7.2-11.8,6.9-18.8c-0.3-7-3.3-13.5-8.4-18.2C106.6,70,100.3,67.5,93.7,67.5L93.7,67.5z"/>
</g>
<g>
	<path class="st2" d="M93.7,75.5c4.6,0,9,1.7,12.3,4.8c3.6,3.3,5.6,7.8,5.8,12.7c0.2,4.9-1.5,9.5-4.8,13.1
		c-3.4,3.7-8.3,5.9-13.4,5.9c-4.6,0-9-1.7-12.3-4.8c-3.6-3.3-5.6-7.8-5.8-12.7c-0.2-4.9,1.5-9.5,4.8-13.1
		C83.8,77.7,88.6,75.5,93.7,75.5 M93.7,72.5c-5.9,0-11.6,2.5-15.6,6.8c-3.8,4.2-5.8,9.6-5.6,15.2c0.2,5.7,2.6,10.9,6.8,14.7
		c3.9,3.6,9,5.6,14.4,5.6c5.9,0,11.6-2.5,15.6-6.8c3.8-4.2,5.8-9.6,5.6-15.2c-0.2-5.7-2.6-10.9-6.8-14.7
		C104.2,74.5,99.1,72.5,93.7,72.5L93.7,72.5z"/>
</g>
<g>
	<path class="st1" d="M125,3c32.6,0,63.2,12.7,86.3,35.7c23,23,35.7,53.7,35.7,86.3s-12.7,63.2-35.7,86.3
		c-23,23-53.7,35.7-86.3,35.7s-63.2-12.7-86.3-35.7S3,157.6,3,125s12.7-63.2,35.7-86.3C61.8,15.7,92.4,3,125,3 M125,0
		C56,0,0,56,0,125s56,125,125,125s125-56,125-125C250,55.9,194,0,125,0L125,0z"/>
</g>
<g>
	<path class="st3" d="M125,8c64.5,0,117,52.5,117,117s-52.5,117-117,117S8,189.5,8,125C8,60.4,60.5,8,125,8 M125,5
		C58.8,5,5,58.8,5,125s53.8,120,120,120s120-53.8,120-120S191.2,5,125,5L125,5z"/>
</g>
<g>
	<path class="st2" d="M125,13c61.8,0,112,50.2,112,112s-50.2,112-112,112S13,186.8,13,125S63.2,13,125,13 M125,10
		C61.6,10,10,61.6,10,125s51.6,115,115,115s115-51.6,115-115S188.4,10,125,10L125,10z"/>
</g>
<path class="st0" d="M85.17,120.27c-35.38,0-55.06-25.49-55.27-25.76l2.39-1.81c0.21,0.27,21.3,27.5,58.98,24.31l0.25,2.99
	C89.36,120.18,87.24,120.27,85.17,120.27z"/>
<path class="st1" d="M85,125.4c-37.81,0-58.25-26.66-59.1-27.8l2.4-1.8c0.81,1.09,20.37,26.6,56.7,26.6c2.18,0,4.42-0.1,6.67-0.29
	l0.26,2.99C89.6,125.3,87.26,125.4,85,125.4z"/>
<path class="st2" d="M85,115.3c-31.26,0-49.11-21.3-51.04-23.72l2.31-1.91l0.04,0.04C38.15,92.02,55.14,112.3,85,112.3
	c1.88,0,3.81-0.1,5.75-0.29l0.3,2.99C89.01,115.2,86.98,115.3,85,115.3z"/>
<g>
	<path class="st1" d="M131.1,65.5c11.1,0,21.6,4.1,29.8,11.6c8.6,8,13.6,18.8,14.1,30.5s-3.7,22.9-11.6,31.5
		c-8.3,9-20,14.1-32.2,14.1c-11.1,0-21.6-4.1-29.8-11.6c-8.6-7.9-13.6-18.8-14-30.5C86.9,99.4,91.1,88.2,99,79.6
		C107.2,70.6,118.9,65.5,131.1,65.5 M131.1,62.5c-13,0-25.6,5.5-34.4,15.1c-8.5,9.2-12.9,21.1-12.4,33.7c0.5,12.5,5.8,24.1,15,32.6
		c8.7,8,20,12.4,31.8,12.4c13,0,25.6-5.5,34.4-15.1c8.5-9.2,12.9-21.1,12.4-33.7c-0.5-12.5-5.8-24.1-15-32.6
		C154.2,66.9,142.9,62.5,131.1,62.5L131.1,62.5z"/>
</g>
<g>
	<path class="st0" d="M131.1,70.5c9.8,0,19.2,3.7,26.4,10.3c7.6,7,12.1,16.6,12.5,27s-3.2,20.3-10.3,27.9
		c-7.3,7.9-17.7,12.5-28.6,12.5c-9.8,0-19.2-3.7-26.4-10.3c-7.6-7-12-16.6-12.4-27s3.2-20.3,10.3-27.9
		C109.9,75,120.3,70.5,131.1,70.5 M131.1,67.5c-11.6,0-22.9,4.9-30.8,13.5c-7.6,8.2-11.5,18.9-11.1,30.1s5.2,21.5,13.4,29.1
		c7.8,7.2,17.8,11.1,28.4,11.1c11.6,0,22.9-4.9,30.8-13.5c7.6-8.2,11.5-18.9,11.1-30.1s-5.2-21.5-13.4-29.1
		C151.8,71.4,141.7,67.5,131.1,67.5L131.1,67.5z"/>
</g>
<g>
	<path class="st2" d="M131.1,75.5c8.5,0,16.7,3.2,23,9c6.6,6.1,10.5,14.5,10.9,23.5s-2.8,17.7-9,24.3c-6.4,6.9-15.5,10.9-24.9,10.9
		c-8.5,0-16.7-3.2-23-9c-6.6-6.1-10.5-14.5-10.8-23.5c-0.4-9.1,2.8-17.7,8.9-24.3C112.6,79.4,121.7,75.5,131.1,75.5 M131.1,72.5
		c-10.3,0-20.1,4.3-27.1,11.8c-6.7,7.2-10.1,16.6-9.7,26.5s4.6,19,11.8,25.6c6.8,6.3,15.7,9.8,25,9.8c10.3,0,20.1-4.3,27.1-11.8
		c6.7-7.2,10.1-16.6,9.8-26.5c-0.4-9.8-4.6-18.9-11.8-25.6C149.3,75.9,140.4,72.5,131.1,72.5L131.1,72.5z"/>
</g>
<g class="st4">
	<path class="st1" d="M71.9,277.53c0,0.26-0.07,0.39-0.22,0.39c-0.35,0-0.91-0.03-1.69-0.1c-0.57-0.05-0.95-0.07-1.13-0.07
		c-0.27,0-0.7,0.03-1.27,0.08s-1,0.08-1.27,0.08l-4.24-6.91c-0.6-0.96-1.08-1.57-1.45-1.84c-0.37-0.27-1.11-0.41-2.22-0.41v6.02
		c0,0.64,0.08,1.1,0.25,1.37c0.16,0.27,0.45,0.48,0.87,0.63c0.42,0.15,1.01,0.28,1.78,0.37c0.16,0.02,0.24,0.14,0.24,0.38
		c0,0.26-0.07,0.39-0.22,0.39c-0.63,0-1.37-0.03-2.24-0.08c-0.83-0.06-1.53-0.08-2.1-0.08c-0.57,0-1.27,0.03-2.09,0.08
		c-0.86,0.06-1.6,0.08-2.23,0.08c-0.15,0-0.22-0.13-0.22-0.39c0-0.23,0.07-0.36,0.22-0.38c0.77-0.09,1.37-0.22,1.78-0.37
		c0.41-0.15,0.7-0.36,0.86-0.62c0.16-0.26,0.25-0.72,0.25-1.37V261.6c0-0.64-0.08-1.1-0.23-1.37c-0.15-0.27-0.44-0.48-0.85-0.64
		c-0.41-0.16-1.01-0.28-1.81-0.38c-0.15,0-0.22-0.13-0.22-0.38s0.07-0.38,0.22-0.38c0.62,0,1.37,0.03,2.23,0.08
		c0.82,0.06,1.52,0.08,2.09,0.08c0.57,0,1.27-0.03,2.1-0.08c0.87-0.06,1.61-0.08,2.24-0.08c2.08,0,3.69,0.44,4.83,1.31
		c1.14,0.87,1.71,2.09,1.71,3.67c0,1-0.38,1.92-1.13,2.77c-0.75,0.85-1.77,1.51-3.05,1.97l4.31,7.02c0.37,0.61,0.86,1.07,1.44,1.36
		c0.59,0.29,1.35,0.49,2.29,0.61C71.84,277.17,71.9,277.3,71.9,277.53z M64.76,263.49c0-2.73-1.19-4.1-3.57-4.1
		c-0.78,0-1.38,0.06-1.79,0.19c-0.41,0.13-0.68,0.33-0.81,0.6s-0.2,0.75-0.2,1.43v6.25c0.54,0.08,1.22,0.11,2.04,0.11
		c1.5,0,2.6-0.36,3.29-1.07C64.42,266.19,64.76,265.05,64.76,263.49z"/>
	<path class="st1" d="M83.68,266.24c0,0.24-0.07,0.37-0.22,0.38c-0.63,0.07-1.12,0.25-1.46,0.56c-0.34,0.3-0.72,0.91-1.13,1.81
		l-6.61,14.28c-0.74,1.53-1.6,2.3-2.58,2.3c-0.48,0-0.86-0.13-1.14-0.38s-0.43-0.59-0.43-0.99c0-0.42,0.13-0.76,0.38-1.03
		c0.26-0.27,0.6-0.4,1.02-0.4c0.2,0,0.43,0.07,0.69,0.21c0.17,0.08,0.29,0.13,0.36,0.13c0.31,0,0.67-0.52,1.09-1.57l1.75-3.78
		l-3.26-8.76c-0.35-0.85-0.69-1.44-1.04-1.77c-0.35-0.32-0.82-0.52-1.42-0.6c-0.15-0.02-0.22-0.15-0.22-0.38
		c0-0.26,0.07-0.39,0.21-0.39c0.36,0,0.8,0.03,1.33,0.08c0.58,0.06,1.1,0.08,1.54,0.08c0.43,0,0.97-0.03,1.62-0.08
		c0.59-0.06,1.08-0.08,1.46-0.08c0.15,0,0.22,0.13,0.22,0.39c0,0.24-0.07,0.37-0.22,0.38c-0.98,0.12-1.46,0.4-1.46,0.84
		c0,0.31,0.13,0.82,0.38,1.52l2.26,5.78l2.67-5.78c0.23-0.53,0.35-0.97,0.35-1.32c0-0.59-0.45-0.94-1.35-1.05
		c-0.15-0.02-0.22-0.14-0.22-0.38c0-0.26,0.07-0.39,0.22-0.39c0.39,0,0.83,0.03,1.31,0.08c0.47,0.06,0.9,0.08,1.29,0.08
		c0.19,0,0.51-0.02,0.94-0.07c0.6-0.07,1.08-0.1,1.44-0.1C83.6,265.85,83.68,265.98,83.68,266.24z"/>
</g>
<g class="st4">
	<path class="st0" d="M98.95,271.96c0,1.86-0.6,3.39-1.81,4.58s-2.78,1.8-4.7,1.8c-1.92,0-3.49-0.6-4.71-1.81
		c-1.21-1.2-1.82-2.73-1.82-4.58c0-1.88,0.61-3.44,1.84-4.68c1.22-1.25,2.79-1.87,4.7-1.87c1.92,0,3.48,0.62,4.69,1.86
		C98.34,268.51,98.95,270.07,98.95,271.96z M96.12,271.93c0-1.71-0.33-3.07-0.99-4.09c-0.66-1.02-1.56-1.53-2.71-1.53
		c-1.14,0-2.04,0.51-2.7,1.54c-0.66,1.03-0.99,2.39-0.99,4.09c0,1.69,0.33,3.03,0.98,4.03s1.56,1.49,2.72,1.49s2.06-0.49,2.72-1.48
		C95.79,274.99,96.12,273.64,96.12,271.93z"/>
</g>
<g class="st4">
	<path class="st2" d="M115.19,277.53c0,0.26-0.07,0.39-0.22,0.39c-0.37,0-0.85-0.03-1.44-0.08c-0.64-0.06-1.19-0.08-1.65-0.08
		c-0.46,0-1.03,0.03-1.72,0.08c-0.64,0.06-1.15,0.08-1.53,0.08c-0.15,0-0.22-0.13-0.22-0.39c0-0.23,0.07-0.36,0.22-0.38
		c0.24-0.03,0.42-0.08,0.52-0.14c0.1-0.07,0.15-0.19,0.15-0.38c0-0.28-0.45-0.9-1.34-1.85l-2.24-2.49
		c-0.19-0.19-0.44-0.28-0.76-0.28v2.77c0,0.82,0.1,1.4,0.3,1.75c0.2,0.34,0.58,0.55,1.13,0.62c0.15,0.02,0.22,0.14,0.22,0.38
		c0,0.26-0.07,0.39-0.22,0.39c-0.4,0-0.92-0.03-1.57-0.08c-0.61-0.06-1.1-0.08-1.45-0.08c-0.4,0-0.88,0.03-1.45,0.08
		c-0.54,0.06-0.99,0.08-1.34,0.08c-0.15,0-0.22-0.13-0.22-0.39c0-0.23,0.07-0.36,0.22-0.38c0.78-0.08,1.29-0.27,1.53-0.55
		c0.23-0.28,0.35-0.89,0.35-1.81v-13c0-0.75-0.09-1.25-0.27-1.48c-0.18-0.23-0.6-0.39-1.27-0.46c-0.15-0.02-0.22-0.14-0.22-0.36
		c0-0.25,0.07-0.37,0.22-0.37c1.59-0.37,2.77-0.87,3.53-1.48c0.14-0.11,0.25-0.17,0.35-0.17c0.26,0,0.39,0.08,0.39,0.22
		c-0.15,1.53-0.22,3.16-0.22,4.88v8.67c0.34,0,0.6-0.09,0.8-0.27l2.09-1.98c0.07-0.07,0.17-0.16,0.32-0.29
		c0.77-0.71,1.16-1.23,1.16-1.57c0-0.25-0.37-0.41-1.12-0.51c-0.15-0.02-0.22-0.15-0.22-0.38c0-0.26,0.07-0.39,0.22-0.39
		c0.39,0,0.89,0.03,1.48,0.08c0.55,0.06,1.01,0.08,1.37,0.08c0.27,0,0.62-0.02,1.05-0.07c0.52-0.07,0.99-0.1,1.4-0.1
		c0.15,0,0.22,0.13,0.22,0.39c0,0.24-0.07,0.37-0.22,0.38c-0.68,0.08-1.28,0.24-1.79,0.48c-0.51,0.25-1.2,0.75-2.06,1.53l-2.41,2.13
		l3.67,4.02c0.77,0.85,1.43,1.43,1.96,1.75c0.53,0.32,1.23,0.52,2.09,0.62C115.12,277.17,115.19,277.3,115.19,277.53z"/>
	<path class="st2" d="M128.28,271.96c0,1.86-0.6,3.39-1.81,4.58s-2.78,1.8-4.7,1.8c-1.92,0-3.49-0.6-4.71-1.81
		c-1.21-1.2-1.82-2.73-1.82-4.58c0-1.88,0.61-3.44,1.84-4.68c1.22-1.25,2.79-1.87,4.7-1.87c1.92,0,3.48,0.62,4.69,1.86
		C127.67,268.51,128.28,270.07,128.28,271.96z M125.46,271.93c0-1.71-0.33-3.07-0.99-4.09c-0.66-1.02-1.56-1.53-2.71-1.53
		c-1.14,0-2.04,0.51-2.7,1.54c-0.66,1.03-0.99,2.39-0.99,4.09c0,1.69,0.33,3.03,0.98,4.03s1.56,1.49,2.72,1.49s2.06-0.49,2.72-1.48
		C125.13,274.99,125.46,273.64,125.46,271.93z"/>
</g>
<g class="st4">
	<path class="st1" d="M159.1,268.29c0,2.96-0.95,5.38-2.86,7.26s-4.39,2.82-7.46,2.82c-3.07,0-5.56-0.94-7.46-2.82
		s-2.85-4.3-2.85-7.26c0-2.97,0.96-5.42,2.87-7.36c1.91-1.94,4.39-2.9,7.43-2.9c3.05,0,5.53,0.97,7.45,2.9
		C158.14,262.87,159.1,265.32,159.1,268.29z M156.02,268.29c0-2.75-0.66-5-1.99-6.75s-3.08-2.62-5.24-2.62
		c-2.17,0-3.92,0.87-5.24,2.62c-1.32,1.75-1.98,4-1.98,6.75c0,2.73,0.66,4.95,1.97,6.64c1.31,1.69,3.06,2.54,5.26,2.54
		c2.18,0,3.94-0.85,5.26-2.54C155.36,273.24,156.02,271.03,156.02,268.29z"/>
</g>
<g class="st4">
	<path class="st0" d="M175.69,277.53c0,0.26-0.07,0.39-0.22,0.39c-0.37,0-0.85-0.03-1.44-0.08c-0.64-0.06-1.19-0.08-1.65-0.08
		c-0.46,0-1.03,0.03-1.72,0.08c-0.64,0.06-1.15,0.08-1.53,0.08c-0.15,0-0.22-0.13-0.22-0.39c0-0.23,0.08-0.36,0.22-0.38
		c0.24-0.03,0.42-0.08,0.52-0.14s0.15-0.19,0.15-0.38c0-0.28-0.45-0.9-1.34-1.85l-2.24-2.49c-0.19-0.19-0.44-0.28-0.76-0.28v2.77
		c0,0.82,0.1,1.4,0.3,1.75c0.2,0.34,0.58,0.55,1.13,0.62c0.15,0.02,0.22,0.14,0.22,0.38c0,0.26-0.07,0.39-0.22,0.39
		c-0.4,0-0.92-0.03-1.57-0.08c-0.61-0.06-1.09-0.08-1.45-0.08c-0.4,0-0.88,0.03-1.45,0.08c-0.54,0.06-0.99,0.08-1.34,0.08
		c-0.15,0-0.22-0.13-0.22-0.39c0-0.23,0.08-0.36,0.22-0.38c0.78-0.08,1.29-0.27,1.53-0.55s0.35-0.89,0.35-1.81v-13
		c0-0.75-0.09-1.25-0.27-1.48s-0.6-0.39-1.27-0.46c-0.15-0.02-0.22-0.14-0.22-0.36c0-0.25,0.08-0.37,0.22-0.37
		c1.59-0.37,2.77-0.87,3.53-1.48c0.14-0.11,0.25-0.17,0.35-0.17c0.26,0,0.39,0.08,0.39,0.22c-0.15,1.53-0.22,3.16-0.22,4.88v8.67
		c0.34,0,0.6-0.09,0.8-0.27l2.09-1.98c0.07-0.07,0.17-0.16,0.32-0.29c0.77-0.71,1.16-1.23,1.16-1.57c0-0.25-0.37-0.41-1.12-0.51
		c-0.15-0.02-0.22-0.15-0.22-0.38c0-0.26,0.08-0.39,0.22-0.39c0.39,0,0.89,0.03,1.48,0.08c0.55,0.06,1.01,0.08,1.37,0.08
		c0.27,0,0.62-0.02,1.05-0.07c0.52-0.07,0.99-0.1,1.4-0.1c0.15,0,0.22,0.13,0.22,0.39c0,0.24-0.07,0.37-0.22,0.38
		c-0.68,0.08-1.28,0.24-1.79,0.48c-0.51,0.25-1.2,0.75-2.06,1.53l-2.41,2.13l3.67,4.02c0.77,0.85,1.43,1.43,1.96,1.75
		s1.23,0.52,2.09,0.62C175.62,277.17,175.69,277.3,175.69,277.53z"/>
</g>
<g class="st4">
	<path class="st2" d="M185.7,278.23c-0.52,0-0.97-0.13-1.36-0.38c-0.39-0.26-0.65-0.6-0.79-1.04c-1,1.03-2.3,1.54-3.92,1.54
		c-0.84,0-1.53-0.26-2.06-0.78c-0.53-0.52-0.8-1.16-0.8-1.94c0-1.91,2.27-3.46,6.8-4.65l0.08-2.18v-0.07c0-0.67-0.17-1.21-0.5-1.6
		s-0.77-0.59-1.32-0.59s-1.02,0.13-1.4,0.4s-0.58,0.6-0.59,1c-0.01,0.6-0.17,1.06-0.47,1.4c-0.3,0.34-0.71,0.5-1.21,0.5
		c-0.3,0-0.54-0.09-0.73-0.27c-0.19-0.18-0.28-0.42-0.28-0.71c0-0.72,0.65-1.47,1.96-2.26c1.31-0.79,2.52-1.18,3.64-1.18
		c1.01,0,1.82,0.3,2.45,0.9c0.63,0.6,0.94,1.4,0.94,2.41v0.17l-0.21,6.33v0.1c0,0.98,0.32,1.47,0.95,1.47
		c0.31,0,0.67-0.19,1.08-0.56l0.1-0.03c0.07,0,0.14,0.05,0.21,0.15s0.1,0.2,0.1,0.31c0,0.27-0.28,0.6-0.85,0.99
		C186.98,278.04,186.36,278.23,185.7,278.23z M183.56,271.92c-2.72,0.62-4.07,1.64-4.07,3.06c0,1.33,0.51,1.99,1.53,1.99
		c0.49,0,0.98-0.12,1.46-0.37c0.48-0.25,0.8-0.55,0.97-0.92L183.56,271.92z"/>
</g>
</svg>
