<?xml version="1.0" encoding="utf-8"?>
<!-- Generator: Adobe Illustrator 23.1.1, SVG Export Plug-In . SVG Version: 6.00 Build 0)  -->
<svg version="1.1" id="Layer_1" xmlns="http://www.w3.org/2000/svg" xmlns:xlink="http://www.w3.org/1999/xlink" x="0px" y="0px"
	 viewBox="0 0 500 500" style="enable-background:new 0 0 500 500;" xml:space="preserve">
<style type="text/css">
	.st0{fill:#F48059;}
	.st1{fill:#EC1C24;}
	.st2{fill:#FBC3B4;}
</style>
<path class="st0" d="M62.38,302.63l-0.23-6c0.2-0.01,20.14-0.87,44.46-9.89c22.3-8.27,52.98-25.33,72.53-59.58l5.21,2.97
	c-20.48,35.89-52.56,53.69-75.85,62.3C83.32,301.75,63.23,302.6,62.38,302.63z"/>
<path class="st1" d="M62.82,312.62l-0.26-5.99c3.14-0.14,77.46-4.08,118.16-63.18c2.5-3.64,4.89-7.45,7.11-11.33l5.21,2.98
	c-2.29,4.02-4.77,7.97-7.37,11.75c-17.56,25.5-43.96,44.91-76.35,56.14C84.94,311.43,65.01,312.52,62.82,312.62z"/>
<path class="st2" d="M61.95,292.64l-0.29-5.99c2.75-0.13,67.62-3.79,102.61-54.6c2.19-3.19,4.27-6.5,6.18-9.84l5.21,2.97
	c-1.99,3.48-4.15,6.93-6.44,10.26c-15.19,22.06-38.21,38.91-66.56,48.71C81.33,291.53,63.87,292.55,61.95,292.64z"/>
<path class="st2" d="M406.48,417.09c-25.44-1.81-74.98-8.64-120.93-33.96c-58.9-32.44-91.34-83.95-96.44-153.08l5.98-0.44
	c4.94,66.98,36.35,116.86,93.36,148.26c46.63,25.7,98.38,31.8,118.47,33.24L406.48,417.09z"/>
<path class="st1" d="M385.52,435.04c-28.28-3.72-70.25-12.7-109.64-34.4c-67.05-36.94-103.09-95.97-107.13-175.44l5.99-0.3
	c3.92,77.25,38.92,134.61,104.03,170.48c38.56,21.25,79.76,30.05,107.52,33.7L385.52,435.04z"/>
<path class="st0" d="M395.36,426.14c-27.59-2.89-80.8-12.14-127.15-41.67c-55.78-35.54-85.88-89.29-89.46-159.77l5.99-0.3
	c3.47,68.43,32.64,120.58,86.69,155.01c45.31,28.87,97.48,37.93,124.55,40.76L395.36,426.14z"/>
<path class="st2" d="M155.33,456.88l-5.68-1.93c10.66-31.45,35.82-116.51,39.07-226.87l6,0.18
	C191.44,339.44,166.08,425.18,155.33,456.88z"/>
<path class="st1" d="M138.35,444.57l-5.7-1.86c12.43-38.14,33.67-117.31,36.18-218.94l6,0.15
	C172.3,326.31,150.89,406.11,138.35,444.57z"/>
<path class="st0" d="M146.19,452.72l-5.69-1.92c13.18-39.1,35.69-120.56,38.32-226.79l6,0.15
	C182.18,331.18,159.48,413.3,146.19,452.72z"/>
<g>
	<path class="st1" d="M187.42,131.15c14.22,0,27.81,5.32,38.26,14.98c11.05,10.21,17.46,24.13,18.06,39.2
		c0.59,15.07-4.7,29.46-14.91,40.5c-10.65,11.52-25.75,18.13-41.44,18.13c-14.22,0-27.81-5.32-38.26-14.98
		c-11.07-10.23-17.49-24.15-18.08-39.2c-0.6-15.05,4.71-29.44,14.93-40.51C156.63,137.76,171.73,131.15,187.42,131.15
		 M187.42,125.15c-17.36,0-34.07,7.31-45.85,20.06c-11.31,12.24-17.18,28.16-16.52,44.81c0.66,16.66,7.76,32.06,20.01,43.37
		c11.57,10.69,26.6,16.57,42.33,16.57c17.36,0,34.07-7.31,45.85-20.06c11.3-12.23,17.16-28.14,16.5-44.81
		c-0.66-16.67-7.76-32.08-19.98-43.37C218.19,131.03,203.16,125.15,187.42,125.15L187.42,125.15z"/>
</g>
<g>
	<path class="st0" d="M187.42,141.15c11.7,0,22.88,4.38,31.48,12.32c9.09,8.4,14.36,19.85,14.85,32.25s-3.87,24.24-12.26,33.32
		c-8.76,9.48-21.19,14.91-34.1,14.91c-11.7,0-22.88-4.38-31.48-12.32c-9.11-8.41-14.39-19.87-14.88-32.25
		c-0.49-12.39,3.87-24.22,12.29-33.32C162.08,146.59,174.51,141.15,187.42,141.15 M187.42,135.15c-14.58,0-28.62,6.14-38.51,16.84
		c-9.5,10.28-14.43,23.65-13.88,37.63c0.55,13.99,6.52,26.92,16.8,36.42c9.71,8.97,22.34,13.92,35.55,13.92
		c14.58,0,28.62-6.14,38.51-16.84c9.48-10.26,14.4-23.63,13.85-37.63c-0.55-14-6.51-26.94-16.78-36.42
		C213.26,140.09,200.64,135.15,187.42,135.15L187.42,135.15z"/>
</g>
<g>
	<path class="st2" d="M187.42,151.15c9.18,0,17.94,3.43,24.69,9.67c7.13,6.58,11.26,15.57,11.65,25.3
		c0.38,9.73-3.03,19.02-9.62,26.14c-6.87,7.44-16.62,11.7-26.76,11.7c-9.17,0-17.94-3.43-24.69-9.67
		c-7.14-6.6-11.29-15.58-11.67-25.3s3.04-19,9.64-26.14C167.54,155.41,177.29,151.15,187.42,151.15 M187.42,145.15
		c-11.8,0-23.16,4.97-31.16,13.63c-7.69,8.32-11.67,19.13-11.23,30.45c0.45,11.32,5.27,21.78,13.59,29.47
		c7.86,7.26,18.07,11.26,28.76,11.26c11.8,0,23.16-4.97,31.16-13.63c7.67-8.3,11.65-19.12,11.2-30.45
		c-0.45-11.33-5.27-21.8-13.57-29.47C208.33,149.15,198.11,145.15,187.42,145.15L187.42,145.15z"/>
</g>
<g>
	<path class="st1" d="M250,6c32.94,0,64.9,6.45,94.97,19.17c29.05,12.29,55.15,29.88,77.56,52.29c22.41,22.41,40,48.51,52.29,77.56
		c12.72,30.08,19.17,62.03,19.17,94.97s-6.45,64.9-19.17,94.97c-12.29,29.05-29.88,55.15-52.29,77.56s-48.51,40-77.56,52.29
		c-30.08,12.72-62.03,19.17-94.97,19.17c-32.94,0-64.9-6.45-94.97-19.17c-29.05-12.29-55.15-29.88-77.56-52.29
		s-40-48.51-52.29-77.56c-12.72-30.08-19.17-62.03-19.17-94.97c0-32.94,6.45-64.9,19.17-94.97c12.29-29.05,29.88-55.15,52.29-77.56
		s48.51-40,77.56-52.29C185.1,12.45,217.06,6,250,6 M250,0C111.93,0,0,111.93,0,250s111.93,250,250,250s250-111.93,250-250
		S388.07,0,250,0L250,0z"/>
</g>
<g>
	<path class="st0" d="M250,16c129.03,0,234,104.97,234,234S379.03,484,250,484S16,379.03,16,250S120.97,16,250,16 M250,10
		C117.66,10,10,117.66,10,250s107.66,240,240,240s240-107.66,240-240S382.34,10,250,10L250,10z"/>
</g>
<g>
	<path class="st2" d="M250,26c123.51,0,224,100.49,224,224S373.51,474,250,474S26,373.51,26,250S126.49,26,250,26 M250,20
		C123.18,20,20,123.18,20,250s103.18,230,230,230s230-103.18,230-230S376.82,20,250,20L250,20z"/>
</g>
<path class="st0" d="M170.38,240.76c-34.92,0-61.74-12.4-78.74-23.49c-20.59-13.43-31.34-27.53-31.79-28.12l4.79-3.61l-2.4,1.81
	l2.39-1.81c0.1,0.14,10.69,13.99,30.48,26.84c18.17,11.81,48.09,25.19,87.42,21.87l0.5,5.98
	C178.71,240.59,174.49,240.76,170.38,240.76z"/>
<path class="st1" d="M170.03,250.77c-75.23,0-116.44-53.33-118.15-55.6l4.79-3.62c1.64,2.17,41.09,53.22,113.37,53.22
	c4.36,0,8.85-0.19,13.36-0.57l0.5,5.98C179.22,250.57,174.55,250.77,170.03,250.77z"/>
<path class="st2" d="M170.09,230.77c-65.05,0-100.76-45.7-102.25-47.65l4.77-3.65c1.41,1.85,35.37,45.29,97.49,45.29
	c3.86,0,7.76-0.17,11.59-0.5l0.52,5.98C178.2,230.59,174.13,230.77,170.09,230.77z"/>
<g>
	<path class="st1" d="M262.24,131.01c22.12,0,43.26,8.27,59.51,23.3c17.21,15.9,27.2,37.56,28.12,60.97
		c0.93,23.42-7.32,45.79-23.23,63c-16.55,17.92-40.05,28.19-64.46,28.19c-22.12,0-43.26-8.27-59.51-23.3
		c-17.19-15.88-27.16-37.53-28.08-60.97c-0.93-23.44,7.31-45.81,23.19-63C214.34,141.29,237.84,131.01,262.24,131.01 M262.24,125.01
		c-26.08,0-51.18,10.98-68.86,30.12c-16.97,18.36-25.77,42.27-24.78,67.31c0.99,25.04,11.65,48.18,30.01,65.14
		c17.37,16.05,39.95,24.89,63.59,24.89c26.08,0,51.18-10.98,68.86-30.12c16.99-18.39,25.8-42.29,24.82-67.31
		c-0.99-25.02-11.66-48.15-30.05-65.14C308.46,133.85,285.88,125.01,262.24,125.01L262.24,125.01z"/>
</g>
<g>
	<path class="st0" d="M262.24,141.01c19.6,0,38.32,7.33,52.73,20.64c15.25,14.09,24.1,33.28,24.92,54.02
		c0.82,20.75-6.49,40.57-20.58,55.82c-14.67,15.88-35.48,24.98-57.11,24.98c-19.6,0-38.32-7.33-52.73-20.64
		c-15.22-14.07-24.06-33.25-24.88-54.02s6.47-40.6,20.54-55.82C219.8,150.12,240.62,141.01,262.24,141.01 M262.24,135.01
		c-23.3,0-45.72,9.81-61.52,26.91c-15.15,16.4-23.01,37.75-22.13,60.13c0.88,22.37,10.4,43.04,26.8,58.19
		c15.52,14.34,35.69,22.24,56.8,22.24c23.3,0,45.72-9.81,61.52-26.91c15.18-16.42,23.05-37.78,22.17-60.13
		c-0.88-22.35-10.41-43.01-26.84-58.19C303.53,142.91,283.35,135.01,262.24,135.01L262.24,135.01z"/>
</g>
<g>
	<path class="st2" d="M262.24,151.01c17.07,0,33.39,6.39,45.94,17.99c13.29,12.28,21,28.99,21.71,47.07s-5.65,35.35-17.93,48.64
		c-12.78,13.83-30.92,21.77-49.77,21.77c-17.07,0-33.39-6.39-45.94-17.99c-13.26-12.25-20.96-28.97-21.67-47.07
		c-0.72-18.1,5.64-35.38,17.89-48.64C225.26,158.94,243.4,151.01,262.24,151.01 M262.24,145.01c-20.52,0-40.26,8.64-54.17,23.69
		c-13.34,14.44-20.26,33.24-19.48,52.95c0.78,19.7,9.16,37.9,23.6,51.24c13.66,12.63,31.42,19.58,50.01,19.58
		c20.52,0,40.26-8.64,54.17-23.7c13.37-14.46,20.3-33.27,19.52-52.95c-0.78-19.67-9.17-37.87-23.64-51.24
		C298.59,151.96,280.83,145.01,262.24,145.01L262.24,145.01z"/>
</g>
</svg>
